<svg xmlns="http://www.w3.org/2000/svg" xmlns:xlink="http://www.w3.org/1999/xlink" width="255" zoomAndPan="magnify" viewBox="0 0 191.25 192.749995" height="257" preserveAspectRatio="xMidYMid meet" version="1.2"><defs><clipPath id="131b1e9960"><path d="M 7.46875 4.671875 L 189.902344 4.671875 L 189.902344 187.101562 L 7.46875 187.101562 Z M 7.46875 4.671875 "/></clipPath><clipPath id="247c551c9b"><path d="M 98.6875 4.671875 C 48.308594 4.671875 7.46875 45.511719 7.46875 95.886719 C 7.46875 146.265625 48.308594 187.101562 98.6875 187.101562 C 149.0625 187.101562 189.902344 146.265625 189.902344 95.886719 C 189.902344 45.511719 149.0625 4.671875 98.6875 4.671875 Z M 98.6875 4.671875 "/></clipPath><clipPath id="bc17a39a76"><path d="M 28 25 L 166 25 L 166 170 L 28 170 Z M 28 25 "/></clipPath><clipPath id="a15d4c62e0"><path d="M 0.00390625 125.792969 L 67.039062 0.464844 L 190.222656 66.347656 L 123.1875 191.679688 Z M 0.00390625 125.792969 "/></clipPath><clipPath id="91aa0844ce"><path d="M 0.00390625 125.792969 L 67.039062 0.464844 L 190.222656 66.347656 L 123.1875 191.679688 Z M 0.00390625 125.792969 "/></clipPath><clipPath id="94637d7071"><path d="M 53.542969 45.972656 L 160.429688 45.972656 L 160.429688 152.859375 L 53.542969 152.859375 Z M 53.542969 45.972656 "/></clipPath><clipPath id="659751eb49"><path d="M 106.984375 45.972656 C 77.46875 45.972656 53.542969 69.902344 53.542969 99.417969 C 53.542969 128.933594 77.46875 152.859375 106.984375 152.859375 C 136.5 152.859375 160.429688 128.933594 160.429688 99.417969 C 160.429688 69.902344 136.5 45.972656 106.984375 45.972656 Z M 106.984375 45.972656 "/></clipPath></defs><g id="0ca3c470ec"><g clip-rule="nonzero" clip-path="url(#131b1e9960)"><g clip-rule="nonzero" clip-path="url(#247c551c9b)"><path style=" stroke:none;fill-rule:nonzero;fill:#8497c2;fill-opacity:1;" d="M 7.46875 4.671875 L 189.902344 4.671875 L 189.902344 187.101562 L 7.46875 187.101562 Z M 7.46875 4.671875 "/></g></g><g clip-rule="nonzero" clip-path="url(#bc17a39a76)"><g clip-rule="nonzero" clip-path="url(#a15d4c62e0)"><g clip-rule="nonzero" clip-path="url(#91aa0844ce)"><path style=" stroke:none;fill-rule:nonzero;fill:#f7f6f0;fill-opacity:1;" d="M 109.699219 27.125 C 85.847656 20.949219 60.539062 31.351562 45.300781 50.140625 C 31 67.785156 25.167969 90.996094 30.769531 113.136719 C 36.179688 134.472656 51.726562 153.464844 71.648438 162.855469 C 93.941406 173.378906 123.070312 172.484375 140.242188 152.875 C 147.953125 144.054688 152.179688 132.070312 150.636719 120.335938 C 150.246094 117.257812 149.492188 114.269531 148.371094 111.378906 C 147.253906 108.484375 145.800781 105.765625 144.019531 103.226562 C 144.488281 99.296875 144.320312 95.394531 143.519531 91.515625 C 142.71875 87.640625 141.324219 83.988281 139.335938 80.566406 C 128.148438 60.949219 97.960938 46.699219 77.515625 60.703125 C 73.5625 63.371094 70.464844 66.808594 68.226562 71.019531 L 79.632812 77.117188 C 81.070312 74.375 83.832031 71.929688 87.058594 70.28125 C 90.441406 68.558594 95.035156 67.980469 99.007812 68.421875 C 103.808594 69.011719 108.328125 70.476562 112.566406 72.816406 C 116.378906 74.726562 119.761719 77.222656 122.707031 80.304688 C 125.746094 83.28125 128.082031 86.734375 129.71875 90.660156 C 110.695312 80.171875 76.578125 77.109375 66.46875 101.140625 C 64.226562 106.480469 63.5 112.5625 65.523438 118.105469 C 67.707031 124.105469 72.148438 128.734375 77.652344 131.863281 C 87.988281 137.738281 101.1875 138.425781 112.585938 135.828125 C 122.347656 133.613281 131.421875 127.910156 137.34375 119.804688 L 137.476562 120.480469 C 138.183594 124.660156 137.933594 128.78125 136.722656 132.84375 C 136.257812 134.703125 135.554688 136.472656 134.613281 138.144531 C 133.574219 140.222656 132.277344 142.121094 130.722656 143.847656 C 117.894531 158.511719 95.851562 159.453125 78.828125 151.773438 C 74.863281 149.972656 71.121094 147.789062 67.601562 145.222656 C 64.082031 142.65625 60.859375 139.761719 57.929688 136.539062 C 55.003906 133.316406 52.429688 129.828125 50.214844 126.078125 C 48 122.332031 46.183594 118.394531 44.773438 114.277344 C 38.996094 97.167969 41.628906 79.304688 51.269531 64.105469 C 53.578125 60.507812 56.246094 57.207031 59.277344 54.199219 C 62.34375 51.03125 65.761719 48.308594 69.539062 46.03125 C 77.316406 41.21875 86.527344 38.261719 96.15625 38.363281 C 106.859375 38.46875 116.929688 43.179688 126.367188 47.753906 C 135.664062 52.269531 144.867188 57.128906 152.394531 64.070312 C 153.574219 65.160156 154.652344 66.265625 155.703125 67.414062 L 165.125 58.355469 C 159.457031 52.199219 152.5625 47.179688 145.34375 42.9375 C 134.324219 36.460938 122.121094 30.34375 109.699219 27.125 Z M 116.078125 120.839844 C 108.410156 124.558594 98.5625 125.050781 90.152344 122.847656 C 88.273438 122.421875 86.496094 121.742188 84.8125 120.808594 C 83.003906 119.996094 81.433594 118.851562 80.101562 117.378906 C 79.574219 116.824219 79.117188 116.214844 78.734375 115.546875 C 78.351562 114.882812 78.054688 114.183594 77.839844 113.445312 C 77.628906 112.707031 77.503906 111.957031 77.46875 111.1875 C 77.4375 110.421875 77.496094 109.664062 77.644531 108.910156 C 78.023438 107.234375 78.667969 105.671875 79.582031 104.21875 C 80.496094 102.761719 81.621094 101.5 82.964844 100.429688 C 85.652344 98.214844 90.085938 96.632812 93.804688 96.203125 C 103.171875 95.148438 113.433594 97.160156 121.78125 101.292969 C 124.683594 102.683594 127.347656 104.4375 129.777344 106.550781 C 128.953125 108.648438 127.863281 110.59375 126.511719 112.390625 C 123.71875 116.054688 120.242188 118.871094 116.078125 120.839844 Z M 116.078125 120.839844 "/></g></g></g><g clip-rule="nonzero" clip-path="url(#94637d7071)"><g clip-rule="nonzero" clip-path="url(#659751eb49)"><path style=" stroke:none;fill-rule:nonzero;fill:#8497c2;fill-opacity:1;" d="M 53.542969 45.972656 L 160.429688 45.972656 L 160.429688 152.859375 L 53.542969 152.859375 Z M 53.542969 45.972656 "/></g></g><g style="fill:#f7f6f0;fill-opacity:1;"><g transform="translate(52.05082, 120.446391)"><path style="stroke:none" d="M 25.03125 0.953125 C 20.082031 0.953125 16.066406 0.125 12.984375 -1.53125 C 9.898438 -3.1875 7.644531 -5.507812 6.21875 -8.5 C 4.789062 -11.488281 4.078125 -14.9375 4.078125 -18.84375 L 4.078125 -51.890625 L 13.9375 -51.890625 L 13.9375 -18.84375 C 13.9375 -16.707031 14.273438 -14.800781 14.953125 -13.125 C 15.640625 -11.445312 16.796875 -10.140625 18.421875 -9.203125 C 20.054688 -8.273438 22.257812 -7.8125 25.03125 -7.8125 C 27.832031 -7.8125 30.035156 -8.273438 31.640625 -9.203125 C 33.253906 -10.140625 34.398438 -11.445312 35.078125 -13.125 C 35.765625 -14.800781 36.109375 -16.707031 36.109375 -18.84375 L 36.109375 -51.890625 L 45.96875 -51.890625 L 45.96875 -18.84375 C 45.96875 -14.9375 45.253906 -11.488281 43.828125 -8.5 C 42.398438 -5.507812 40.144531 -3.1875 37.0625 -1.53125 C 33.976562 0.125 29.96875 0.953125 25.03125 0.953125 Z M 25.03125 0.953125 "/></g></g><g style="fill:#f7f6f0;fill-opacity:1;"><g transform="translate(102.161874, 120.446391)"><path style="stroke:none" d="M 44.609375 -15.03125 C 44.609375 -10.21875 42.941406 -6.375 39.609375 -3.5 C 36.273438 -0.625 31.617188 0.859375 25.640625 0.953125 L 25.640625 6.796875 L 22.78125 6.796875 L 22.78125 0.890625 C 20.46875 0.703125 18.164062 0.25 15.875 -0.46875 C 13.582031 -1.195312 11.460938 -2.253906 9.515625 -3.640625 C 7.566406 -5.023438 5.957031 -6.800781 4.6875 -8.96875 C 3.414062 -11.144531 2.644531 -13.773438 2.375 -16.859375 L 12.515625 -16.859375 C 13.234375 -13.734375 14.554688 -11.476562 16.484375 -10.09375 C 18.410156 -8.71875 20.507812 -7.867188 22.78125 -7.546875 L 22.78125 -22.515625 L 22.234375 -22.640625 C 20.109375 -23.140625 17.976562 -23.679688 15.84375 -24.265625 C 13.707031 -24.859375 11.742188 -25.675781 9.953125 -26.71875 C 8.171875 -27.757812 6.742188 -29.15625 5.671875 -30.90625 C 4.609375 -32.65625 4.078125 -34.890625 4.078125 -37.609375 C 4.078125 -40.960938 4.878906 -43.757812 6.484375 -46 C 8.097656 -48.25 10.285156 -49.953125 13.046875 -51.109375 C 15.816406 -52.265625 18.945312 -52.84375 22.4375 -52.84375 L 22.78125 -52.84375 L 22.78125 -58.6875 L 25.640625 -58.6875 L 25.640625 -52.625 C 28.535156 -52.3125 31.226562 -51.507812 33.71875 -50.21875 C 36.21875 -48.925781 38.316406 -47.144531 40.015625 -44.875 C 41.710938 -42.613281 42.789062 -39.804688 43.25 -36.453125 L 33.25 -36.453125 C 32.75 -38.578125 31.816406 -40.265625 30.453125 -41.515625 C 29.097656 -42.765625 27.492188 -43.613281 25.640625 -44.0625 L 25.640625 -31.015625 L 25.703125 -31.015625 C 27.878906 -30.554688 30.066406 -30 32.265625 -29.34375 C 34.460938 -28.6875 36.5 -27.800781 38.375 -26.6875 C 40.257812 -25.582031 41.769531 -24.097656 42.90625 -22.234375 C 44.039062 -20.378906 44.609375 -17.976562 44.609375 -15.03125 Z M 13.796875 -38.421875 C 13.796875 -36.421875 14.671875 -34.957031 16.421875 -34.03125 C 18.171875 -33.101562 20.289062 -32.320312 22.78125 -31.6875 L 22.78125 -44.46875 L 22.234375 -44.46875 C 19.785156 -44.46875 17.765625 -43.957031 16.171875 -42.9375 C 14.585938 -41.914062 13.796875 -40.410156 13.796875 -38.421875 Z M 25.640625 -21.890625 L 25.640625 -7.40625 C 28.265625 -7.457031 30.4375 -8.0625 32.15625 -9.21875 C 33.882812 -10.375 34.75 -12.148438 34.75 -14.546875 C 34.75 -16.046875 34.335938 -17.25 33.515625 -18.15625 C 32.703125 -19.0625 31.613281 -19.804688 30.25 -20.390625 C 28.894531 -20.984375 27.359375 -21.484375 25.640625 -21.890625 Z M 25.640625 -21.890625 "/></g></g></g></svg>