<?xml version="1.0" encoding="utf-8"?>
<svg xmlns="http://www.w3.org/2000/svg" viewBox="17.6489 43.2539 239.2752 192.1149" width="319.034px" height="256.153px" preserveAspectRatio="none"><defs><clipPath id="4471901c31"><path d="M 17 43 L 257 43 L 257 236 L 17 236 Z M 17 43 "/></clipPath><clipPath id="b0aeadd827"><path d="M 193.5 309.375 L -0.121094 207.433594 L 109.152344 -0.117188 L 302.777344 101.828125 Z M 193.5 309.375 "/></clipPath><clipPath id="4027b30210"><path d="M 193.5 309.375 L -0.121094 207.433594 L 109.152344 -0.117188 L 302.777344 101.828125 Z M 193.5 309.375 "/></clipPath></defs><g clip-rule="nonzero" clip-path="url(#4471901c31)" id="object-0"><g clip-rule="nonzero" clip-path="url(#b0aeadd827)"><g clip-rule="nonzero" clip-path="url(#4027b30210)"><path style="fill-rule: nonzero; fill-opacity: 1; fill: rgb(183, 227, 200);" d="M 19.675781 202.535156 C 24.570312 217.386719 37.289062 227.09375 51.660156 231.972656 C 80.914062 241.890625 112.414062 228.742188 134.875 209.898438 C 150.273438 196.988281 161.65625 180.851562 170.859375 163.351562 C 171.109375 167.585938 171.464844 171.816406 171.925781 176.035156 C 173.148438 187.324219 174.261719 199.449219 179.96875 209.503906 C 185.796875 219.742188 196.589844 225.261719 208.148438 225.570312 C 233.347656 226.25 248.960938 203.9375 253.9375 181.632812 C 258.597656 160.871094 257.519531 138.722656 252.675781 118.109375 C 250.183594 107.71875 246.621094 97.710938 241.988281 88.082031 C 237.359375 78.453125 231.765625 69.421875 225.203125 60.988281 L 209.394531 73.863281 C 214.105469 80.035156 218.234375 86.574219 221.777344 93.480469 C 225.320312 100.386719 228.226562 107.550781 230.492188 114.976562 C 232.988281 122.957031 234.6875 131.105469 235.585938 139.417969 C 236.484375 147.730469 236.570312 156.050781 235.839844 164.378906 C 235.410156 168.457031 234.773438 172.5 233.933594 176.511719 C 232.992188 181.417969 231.414062 186.113281 229.203125 190.59375 C 227.386719 194.261719 224.960938 197.460938 221.925781 200.203125 C 221.3125 200.59375 220.71875 201.015625 220.152344 201.472656 C 219.382812 201.964844 218.578125 202.4375 217.746094 202.894531 C 217.597656 202.96875 217.449219 203.046875 217.304688 203.136719 L 216.582031 203.410156 C 215.359375 203.867188 214.117188 204.257812 212.851562 204.570312 C 210.46875 205.164062 207.480469 204.96875 204.578125 204.488281 L 203.957031 204.394531 C 203.859375 204.335938 203.757812 204.285156 203.65625 204.238281 C 202.835938 203.886719 202.070312 203.472656 201.289062 203.046875 C 200.265625 202.421875 199.417969 201.613281 198.742188 200.621094 C 196.460938 197.546875 195.484375 193.871094 194.582031 189.667969 C 193.785156 185.96875 193.191406 180.871094 192.683594 176.527344 C 190.183594 154.753906 190.390625 133.007812 193.300781 111.289062 L 172.382812 107.695312 C 162.113281 135.703125 150.640625 164.695312 129.734375 186.550781 C 121.089844 195.589844 110.925781 203.453125 99.492188 208.53125 C 94.035156 210.898438 88.390625 212.667969 82.558594 213.835938 C 79.65625 214.335938 76.730469 214.625 73.78125 214.699219 C 71.125 214.867188 68.484375 214.71875 65.863281 214.257812 C 59.417969 213.253906 55.882812 212.144531 50.652344 209.195312 C 50.40625 209.066406 47.972656 207.480469 48.074219 207.613281 C 47.042969 206.851562 46.058594 206.035156 45.117188 205.160156 C 44.679688 204.75 42.988281 202.945312 43.101562 203.140625 C 42.191406 201.960938 41.375 200.726562 40.644531 199.429688 C 38.820312 196.273438 37.851562 190.171875 38.441406 186.003906 C 39.410156 179.195312 41.316406 174.5 44.320312 168.492188 C 56.53125 143.984375 74.347656 122.609375 95.058594 104.457031 C 105.644531 95.242188 117.003906 87.109375 129.136719 80.050781 C 141.265625 72.996094 153.953125 67.144531 167.195312 62.496094 L 159.804688 43.253906 C 103.828125 63.175781 54.347656 104.320312 26.890625 157.246094 C 19.769531 170.957031 14.621094 187.257812 19.675781 202.535156 Z M 19.675781 202.535156 "/></g></g></g></svg>