<?xml version="1.0" encoding="utf-8"?>
<svg xmlns="http://www.w3.org/2000/svg" viewBox="29.0078 18.2305 182.7656 186.0898" width="243.687px" height="248.12px" preserveAspectRatio="none" xmlns:bx="https://boxy-svg.com"><defs><clipPath id="b64163825f"><path d="M 65 18 L 173 18 L 173 205 L 65 205 Z M 65 18 "/></clipPath><clipPath id="229408ad8a"><path d="M 58.835938 0.25 L 229.007812 50.234375 L 177.125 226.871094 L 6.949219 176.882812 Z M 58.835938 0.25 "/></clipPath><clipPath id="27b27af411"><path d="M 58.835938 0.25 L 229.007812 50.234375 L 177.125 226.871094 L 6.949219 176.882812 Z M 58.835938 0.25 "/></clipPath><clipPath id="c078d5a051"><path d="M 32 47 L 212 47 L 212 167 L 32 167 Z M 32 47 "/></clipPath><clipPath id="5a33ef5d37"><path d="M 58.835938 0.25 L 229.007812 50.234375 L 177.125 226.871094 L 6.949219 176.882812 Z M 58.835938 0.25 "/></clipPath><clipPath id="594246aaa2"><path d="M 58.835938 0.25 L 229.007812 50.234375 L 177.125 226.871094 L 6.949219 176.882812 Z M 58.835938 0.25 "/></clipPath><clipPath id="b770371e31"><path d="M 29 78 L 210 78 L 210 138 L 29 138 Z M 29 78 "/></clipPath><clipPath id="c23267dc3b"><path d="M 58.835938 0.25 L 229.007812 50.234375 L 177.125 226.871094 L 6.949219 176.882812 Z M 58.835938 0.25 "/></clipPath><clipPath id="7b104994f7"><path d="M 58.835938 0.25 L 229.007812 50.234375 L 177.125 226.871094 L 6.949219 176.882812 Z M 58.835938 0.25 "/></clipPath><clipPath id="44871e66b7"><path d="M 75 22 L 158 22 L 158 204 L 75 204 Z M 75 22 "/></clipPath><clipPath id="5f9fba59f8"><path d="M 58.835938 0.25 L 229.007812 50.234375 L 177.125 226.871094 L 6.949219 176.882812 Z M 58.835938 0.25 "/></clipPath><clipPath id="9a2eefb36c"><path d="M 58.835938 0.25 L 229.007812 50.234375 L 177.125 226.871094 L 6.949219 176.882812 Z M 58.835938 0.25 "/></clipPath><bx:export><bx:file format="svg"/></bx:export></defs><g id="d394e3a8b3" transform="matrix(1, 0, 0, 1, 3.552713678800501e-15, 0)"><g clip-rule="nonzero" clip-path="url(#b64163825f)"><g clip-rule="nonzero" clip-path="url(#229408ad8a)"><g clip-rule="nonzero" clip-path="url(#27b27af411)"><path style="fill-rule: nonzero; fill-opacity: 1; fill: rgb(183, 227, 200); stroke: rgb(38, 66, 64); stroke-width: 0.5px; stroke-opacity: 0;" d="M 172.992188 192.863281 C 151.558594 145.5625 128.03125 99.210938 104.527344 52.96875 C 98.625 41.367188 86.6875 18.230469 86.6875 18.230469 L 65.621094 29.730469 C 89.71875 76.066406 113.105469 122.78125 135.78125 169.871094 C 141.28125 181.304688 146.71875 192.761719 151.957031 204.320312 Z M 172.992188 192.863281 "/></g></g></g><g clip-rule="nonzero" clip-path="url(#c078d5a051)"><g clip-rule="nonzero" clip-path="url(#5a33ef5d37)"><g clip-rule="nonzero" clip-path="url(#594246aaa2)"><path style="fill-rule: nonzero; fill-opacity: 1; fill: rgb(183, 227, 200); stroke: rgb(38, 66, 64); stroke-width: 0.5px; stroke-opacity: 0;" d="M 42.890625 166.339844 C 87.621094 141.171875 131.828125 115.070312 176.324219 89.484375 C 188.121094 82.691406 199.9375 75.957031 211.773438 69.285156 L 201.089844 47.804688 C 156.359375 72.972656 112.140625 99.082031 67.644531 124.667969 C 55.851562 131.460938 44.035156 138.195312 32.195312 144.867188 Z M 42.890625 166.339844 "/></g></g></g><g clip-rule="nonzero" clip-path="url(#b770371e31)"><g clip-rule="nonzero" clip-path="url(#c23267dc3b)"><g clip-rule="nonzero" clip-path="url(#7b104994f7)"><path style="fill-rule: nonzero; fill-opacity: 1; fill: rgb(183, 227, 200); stroke: rgb(38, 66, 64); stroke-width: 0.5px; stroke-opacity: 0;" d="M 29.007812 101.6875 L 202.734375 137.386719 L 209.496094 114.367188 L 35.769531 78.667969 Z M 29.007812 101.6875 "/></g></g></g><g clip-rule="nonzero" clip-path="url(#44871e66b7)"><g clip-rule="nonzero" clip-path="url(#5f9fba59f8)"><g clip-rule="nonzero" clip-path="url(#9a2eefb36c)"><path style="fill-rule: nonzero; fill-opacity: 1; fill: rgb(183, 227, 200); stroke: rgb(38, 66, 64); stroke-width: 0.5px; stroke-opacity: 0;" d="M 75.089844 195.746094 L 97.679688 203.554688 C 121.222656 146.742188 157.660156 29.25 157.660156 29.25 L 134.640625 22.488281 C 134.640625 22.488281 98.480469 139.234375 75.089844 195.746094 Z M 75.089844 195.746094 "/></g></g></g></g></svg>