<?xml version="1.0" encoding="utf-8"?>
<svg xmlns="http://www.w3.org/2000/svg" viewBox="37.2173 25.6622 172.4116 240.045" width="229.882px" height="320.06px" preserveAspectRatio="none"><defs><clipPath id="5aa361fed4"><path d="M 73.804688 288.414062 L 0.0703125 55.285156 L 173.3125 0.492188 L 247.046875 233.621094 Z M 73.804688 288.414062 "/></clipPath><clipPath id="b019576939"><path d="M 73.804688 288.414062 L 0.0703125 55.285156 L 173.3125 0.492188 L 247.046875 233.621094 Z M 73.804688 288.414062 "/></clipPath></defs><g clip-rule="nonzero" clip-path="url(#5aa361fed4)" id="object-0" transform="matrix(1, 0, 0, 1, 1.7763568394002505e-15, 0)"><g clip-rule="nonzero" clip-path="url(#b019576939)"><path style="fill-rule: nonzero; fill-opacity: 1; fill: rgb(183, 227, 200);" d="M 57.074219 67.882812 C 57.222656 83.148438 65.066406 98.445312 77.039062 107.851562 C 76.957031 107.875 76.871094 107.902344 76.785156 107.929688 C 61.925781 112.738281 47.765625 123.519531 41.179688 137.992188 C 33.582031 154.6875 37.257812 172.847656 49.234375 186.414062 C 61.3125 200.089844 79.992188 205.628906 97.816406 204.515625 C 98 204.503906 98.183594 204.484375 98.371094 204.472656 C 92.832031 215.1875 90.746094 227.46875 94.542969 239.367188 C 99.695312 255.492188 114.164062 266.585938 131.328125 265.652344 C 147.765625 264.75 163.769531 255.195312 176.398438 245.226562 C 183.113281 239.960938 189.269531 234.105469 194.855469 227.65625 C 200.445312 221.207031 205.371094 214.285156 209.628906 206.890625 L 193.207031 196.597656 C 187.464844 206.804688 180.316406 215.898438 171.753906 223.882812 C 162.609375 232.457031 150.769531 240.546875 139.25 244.425781 C 133.773438 246.273438 128.542969 247.351562 123.042969 245.375 C 119.328125 244.039062 116.359375 240.945312 113.941406 236.328125 L 113.910156 236.230469 L 113.804688 235.902344 C 113.558594 235.269531 113.316406 234.644531 113.101562 234.003906 C 112.84375 233.1875 112.632812 232.371094 112.375 231.558594 C 112.339844 231.4375 112.171875 230.664062 112.132812 230.566406 C 111.957031 229.410156 111.847656 228.246094 111.8125 227.078125 C 111.730469 225.8125 111.796875 224.550781 112.019531 223.300781 C 113.011719 217.839844 115.140625 212.867188 118.410156 208.382812 C 122.253906 203.386719 126.800781 199.144531 132.054688 195.660156 C 140.820312 191.75 149.363281 187.394531 157.675781 182.59375 L 149.1875 165.066406 C 139.992188 169.136719 130.695312 173.429688 122.296875 178.960938 C 116.417969 181.425781 110.347656 183.246094 104.085938 184.425781 C 92.160156 186.558594 77.371094 185.183594 67.8125 177.472656 C 63.1875 173.75 59.441406 168.910156 57.746094 164.097656 C 55.773438 158.480469 55.75 154.132812 57.753906 148.257812 L 57.867188 147.902344 L 58.136719 147.355469 C 58.425781 146.757812 58.6875 146.152344 58.972656 145.53125 C 59.640625 144.191406 60.386719 142.898438 61.21875 141.65625 L 61.265625 141.578125 C 61.320312 141.511719 61.40625 141.410156 61.542969 141.226562 C 62.054688 140.554688 62.582031 139.898438 63.125 139.25 C 64.230469 137.957031 65.402344 136.726562 66.636719 135.558594 C 68.554688 133.785156 70.632812 132.222656 72.871094 130.878906 C 74.042969 130.140625 75.25 129.492188 76.453125 128.808594 L 77.015625 128.492188 C 77.09375 128.464844 77.207031 128.429688 77.351562 128.34375 C 78.128906 127.992188 78.925781 127.667969 79.722656 127.355469 C 91.015625 123.003906 103.183594 122.601562 115.234375 123.460938 C 121 124.417969 126.800781 125.066406 132.632812 125.402344 L 134.113281 106.078125 C 128.667969 105.460938 123.164062 104.859375 117.640625 104.414062 C 109.582031 102.980469 101.6875 100.585938 94.667969 96.566406 C 92.105469 95.167969 89.746094 93.488281 87.597656 91.515625 C 85.445312 89.546875 83.5625 87.347656 81.949219 84.914062 C 81.246094 83.828125 80.628906 82.6875 79.96875 81.5625 C 79.824219 81.3125 79.714844 81.128906 79.625 80.992188 L 79.390625 80.40625 C 79.144531 79.804688 78.894531 79.210938 78.671875 78.605469 C 78.164062 77.242188 77.726562 75.859375 77.359375 74.457031 C 77.179688 73.886719 77.078125 73.296875 76.949219 72.710938 C 76.921875 72.628906 76.667969 71.007812 76.660156 70.910156 C 76.503906 69.503906 76.433594 68.09375 76.4375 66.679688 C 76.433594 65.957031 76.457031 65.230469 76.53125 64.507812 L 76.621094 64.078125 C 76.921875 62.566406 77.234375 61.085938 77.65625 59.601562 C 77.636719 59.546875 77.722656 59.417969 77.769531 59.292969 C 78.136719 58.460938 78.515625 57.636719 78.953125 56.84375 C 78.890625 56.949219 79.464844 56.003906 79.75 55.515625 C 80.03125 55.027344 80.808594 54.136719 80.722656 54.234375 C 81.339844 53.5 82.824219 51.96875 83.027344 51.796875 C 85.65625 49.578125 88.625 48.003906 91.941406 47.082031 C 105.507812 42.789062 121.65625 45.832031 135.679688 49.378906 C 151.503906 53.441406 166.371094 59.75 180.289062 68.304688 L 189.363281 51.246094 C 174.472656 42.183594 158.597656 35.425781 141.742188 30.976562 C 124.074219 26.300781 103.929688 22.984375 86.109375 28.644531 C 68.519531 34.222656 56.914062 49.421875 57.074219 67.882812 Z M 76.445312 64.703125 C 76.386719 65.058594 76.316406 65.355469 76.445312 64.703125 Z M 77.734375 59.28125 C 77.910156 58.851562 78.152344 58.367188 77.734375 59.28125 Z M 77.734375 59.28125 "/></g></g></svg>