<?xml version="1.0" encoding="utf-8"?>
<svg xmlns="http://www.w3.org/2000/svg" width="401" zoomAndPan="magnify" viewBox="0 0 300.75 250.499992" height="334" preserveAspectRatio="none" version="1.2" xmlns:bx="https://boxy-svg.com"><defs><clipPath id="764caaec93"><path d="M 33 25 L 273 25 L 273 244 L 33 244 Z M 33 25 "/></clipPath><clipPath id="eedbb1624a"><path d="M 299.8125 188.738281 L 45.839844 249.882812 L 0.464844 61.402344 L 254.4375 0.261719 Z M 299.8125 188.738281 "/></clipPath><clipPath id="ade05fb446"><path d="M 299.8125 188.738281 L 45.839844 249.882812 L 0.464844 61.402344 L 254.4375 0.261719 Z M 299.8125 188.738281 "/></clipPath><bx:export><bx:file format="svg"/></bx:export></defs><g id="2260f57dc8"><g clip-rule="nonzero" clip-path="url(#764caaec93)"><g clip-rule="nonzero" clip-path="url(#eedbb1624a)"><g clip-rule="nonzero" clip-path="url(#ade05fb446)"><path style="fill-rule: nonzero; fill-opacity: 1; fill: rgb(183, 227, 200);" d="M 77.398438 230.921875 C 62.648438 215.257812 55.574219 194.109375 55.425781 172.878906 C 55.28125 150.128906 62.71875 128.996094 75.082031 110.050781 C 87.074219 91.660156 103.546875 75.449219 121.839844 62.742188 C 132.085938 55.628906 143.363281 49.230469 155.941406 47.503906 L 157.117188 47.390625 C 157.726562 47.363281 158.335938 47.34375 158.949219 47.339844 C 160.171875 47.324219 161.390625 47.390625 162.605469 47.539062 C 163.894531 47.714844 163.042969 47.628906 162.8125 47.582031 C 163.386719 47.707031 163.964844 47.878906 164.523438 48.023438 C 165.820312 48.4375 166.238281 48.585938 166.671875 48.996094 C 169.097656 51.238281 170.335938 54.820312 170.511719 58.878906 C 170.667969 64.457031 170.113281 69.964844 168.839844 75.402344 C 167.570312 80.839844 165.632812 86.023438 163.019531 90.957031 C 157.621094 101.21875 150.007812 110.09375 141.140625 116.125 C 136.316406 119.402344 133.90625 125.367188 136.917969 130.808594 C 139.929688 136.253906 146.171875 137.304688 151.601562 135.03125 C 156.660156 132.933594 161.871094 131.355469 167.238281 130.285156 C 172.605469 129.21875 178.023438 128.683594 183.496094 128.6875 C 185.011719 128.6875 186.59375 128.707031 188.214844 128.761719 C 183.988281 134.054688 179.925781 139.429688 176.121094 145 C 172.320312 150.574219 168.820312 156.21875 165.59375 162.058594 C 162.246094 168.171875 158.707031 174.609375 157.414062 181.519531 C 154.53125 196.878906 162.816406 213.1875 179.863281 213.910156 C 193.035156 214.472656 205.460938 205.757812 214.691406 197.253906 C 232.746094 180.628906 249.667969 148.679688 233.230469 125.46875 C 231.324219 122.789062 229.082031 120.429688 226.496094 118.394531 C 241.179688 103.582031 256.960938 89.925781 272.765625 76.328125 L 259.46875 59.324219 C 240.871094 75.300781 222.25 91.351562 205.390625 109.191406 C 200.359375 108.167969 195.277344 107.519531 190.152344 107.246094 C 186.214844 107.023438 182.277344 107.035156 178.34375 107.277344 C 181.964844 101.484375 184.902344 95.359375 187.15625 88.90625 C 189.40625 82.453125 190.914062 75.828125 191.683594 69.039062 C 193.292969 54.785156 190.625 37.914062 177.054688 30.132812 C 163.488281 22.355469 146.441406 26.285156 132.769531 31.886719 C 118.835938 37.597656 106.355469 46.839844 94.835938 56.394531 C 84.335938 65.144531 74.832031 74.859375 66.320312 85.550781 C 49.242188 106.875 37.398438 132.195312 34.511719 159.496094 C 31.398438 189.15625 39.574219 220.445312 59.308594 243.058594 Z M 211.738281 134.207031 C 212.070312 134.417969 212.402344 134.621094 212.738281 134.820312 C 215.601562 136.875 216.886719 139.125 217.707031 142.953125 C 218.414062 146.285156 218.0625 150.855469 217.09375 154.609375 C 214.742188 163.71875 209.386719 171.996094 202.648438 178.890625 C 199.601562 182.078125 196.253906 184.917969 192.609375 187.40625 C 190.566406 188.765625 188.4375 189.984375 186.226562 191.0625 C 185.9375 191.191406 185.660156 191.339844 185.386719 191.503906 C 185.207031 191.546875 184.933594 191.613281 184.507812 191.714844 C 184.078125 191.816406 181.46875 192.191406 181.351562 192.3125 L 180.113281 192.234375 C 179.933594 192.105469 179.738281 192.007812 179.527344 191.9375 C 179.148438 191.714844 178.78125 191.539062 179.316406 191.988281 C 178.113281 190.929688 178.988281 191.761719 178.515625 190.261719 C 177.65625 187.539062 179.324219 182.617188 181.132812 178.902344 C 189.003906 162.660156 199.808594 147.824219 211.738281 134.207031 Z M 211.738281 134.207031 "/></g></g></g></g></svg>