<?xml version="1.0" encoding="utf-8"?>
<svg xmlns="http://www.w3.org/2000/svg" viewBox="0.5703 4.4714 247.043 197.163" width="329.391px" height="262.884px" preserveAspectRatio="none"><path style="fill-rule: nonzero; fill-opacity: 1; fill: rgb(183, 227, 200);" d="M 240.101562 173.128906 C 219.054688 184.070312 194.160156 186.695312 171.699219 179.089844 C 167.070312 177.5 162.65625 175.449219 158.453125 172.941406 C 154.253906 170.433594 150.351562 167.519531 146.757812 164.199219 C 167.90625 154.316406 187.292969 137.703125 194.636719 115.855469 C 195.671875 112.667969 196.386719 109.40625 196.785156 106.078125 C 197.183594 102.753906 197.257812 99.417969 197.007812 96.074219 C 196.753906 92.730469 196.183594 89.445312 195.289062 86.214844 C 194.394531 82.984375 193.199219 79.871094 191.699219 76.875 C 185.246094 64.058594 172.421875 56.152344 158.210938 55.386719 C 143.664062 54.582031 129.03125 61.597656 119.917969 72.820312 C 110.449219 84.449219 105.847656 99.277344 105.726562 114.207031 C 105.613281 128.65625 109.65625 142.609375 116.640625 154.960938 C 103 157.332031 89.117188 155.558594 77.359375 146.804688 C 68.984375 140.554688 62.476562 130.949219 57.636719 120.90625 C 54.683594 114.703125 52.347656 108.28125 50.621094 101.636719 C 63.589844 99.585938 76.035156 94.957031 86.984375 86.8125 C 98.945312 77.90625 108.941406 65.410156 112.292969 50.605469 C 115.800781 35.039062 111.261719 18.335938 97.5625 9.21875 C 83.863281 0.0976562 66.78125 5.296875 54.925781 14.878906 C 43.199219 24.363281 35.582031 39.171875 31.925781 53.585938 C 29.402344 63.835938 28.570312 74.222656 29.429688 84.746094 C 26.554688 84.632812 23.679688 84.414062 20.808594 84.09375 C 15.214844 83.398438 9.695312 82.328125 4.246094 80.886719 L 0.570312 98.773438 C 10.972656 101.320312 21.527344 102.699219 32.234375 102.914062 C 35.617188 117.375 41.429688 131.972656 50.136719 144.09375 C 58.722656 156.019531 69.777344 165.589844 83.730469 170.617188 C 97.878906 175.710938 113.808594 174.960938 128.160156 171.039062 C 132.75 176.195312 137.84375 180.796875 143.4375 184.84375 C 167.847656 202.5 200.957031 205.621094 229.375 197.0625 C 235.667969 195.152344 241.746094 192.707031 247.613281 189.734375 Z M 47.574219 83.714844 C 46.683594 71.410156 48.074219 59.125 53.066406 47.777344 C 57.417969 37.886719 65.085938 27.433594 74.617188 23.886719 C 83.582031 20.566406 91.578125 24.480469 94.355469 33.488281 C 97.542969 43.808594 92.210938 55.800781 85.832031 63.230469 C 82.425781 67.15625 78.574219 70.578125 74.277344 73.5 C 69.976562 76.421875 65.378906 78.746094 60.476562 80.472656 C 56.273438 81.9375 51.972656 83.019531 47.574219 83.714844 Z M 142.667969 145.652344 C 140.015625 147.054688 137.28125 148.394531 134.488281 149.582031 C 131.667969 145.167969 129.394531 140.492188 127.667969 135.550781 C 124.078125 125.246094 122.792969 114.933594 124.863281 104.597656 C 126.96875 94.003906 132.171875 83.65625 140.828125 78.199219 C 142.777344 76.945312 144.84375 75.929688 147.03125 75.15625 C 148.332031 74.71875 149.65625 74.355469 151 74.0625 C 152.03125 73.773438 153.082031 73.617188 154.148438 73.589844 C 159.320312 73.484375 163.148438 73.914062 167.121094 76.195312 C 174.359375 80.351562 178.378906 89.074219 178.855469 97.351562 C 178.992188 99.75 178.929688 102.144531 178.664062 104.53125 L 178.664062 104.589844 C 178.664062 104.671875 178.625 104.777344 178.589844 104.953125 C 178.46875 105.578125 178.355469 106.203125 178.21875 106.820312 C 177.902344 108.214844 177.519531 109.589844 177.066406 110.945312 C 175.277344 115.746094 172.804688 120.167969 169.652344 124.207031 C 162.25 133.460938 152.992188 140.097656 142.667969 145.652344 Z M 142.667969 145.652344 " id="object-0" transform="matrix(1, 0, 0, 1, -3.552713678800501e-15, 0)"/></svg>