<?xml version="1.0" encoding="utf-8"?>
<svg xmlns="http://www.w3.org/2000/svg" viewBox="20.8289 42.7911 442.3979 98.3781" width="589.864px" height="131.171px" preserveAspectRatio="none"><defs><clipPath id="448ca02baa"><path d="M 20 42 L 114 42 L 114 142 L 20 142 Z M 20 42 "/></clipPath><clipPath id="1dacc3139f"><path d="M 1.269531 111.320312 L 47.003906 25.8125 L 131.199219 70.84375 L 85.464844 156.351562 Z M 1.269531 111.320312 "/></clipPath><clipPath id="22c28d1122"><path d="M 1.269531 111.320312 L 47.003906 25.8125 L 131.199219 70.84375 L 85.464844 156.351562 Z M 1.269531 111.320312 "/></clipPath></defs><g id="object-0"><g style="fill:#1c1b22;fill-opacity:1;"><g transform="translate(131.108896, 132.658854)"><path style="paint-order: fill; fill: rgb(183, 227, 200); stroke-linecap: square; stroke-miterlimit: 12.48; stroke: rgb(90, 88, 98); stroke-opacity: 0.5;" d="M 43.96875 1.09375 C 37.40625 1.09375 31.695312 -0.0507812 26.84375 -2.34375 C 22 -4.644531 17.988281 -7.800781 14.8125 -11.8125 C 11.644531 -15.820312 9.296875 -20.394531 7.765625 -25.53125 C 6.234375 -30.675781 5.46875 -36.09375 5.46875 -41.78125 C 5.46875 -47.46875 6.234375 -52.863281 7.765625 -57.96875 C 9.296875 -63.082031 11.644531 -67.644531 14.8125 -71.65625 C 17.988281 -75.664062 22 -78.816406 26.84375 -81.109375 C 31.695312 -83.410156 37.40625 -84.5625 43.96875 -84.5625 C 50.164062 -84.5625 55.617188 -83.539062 60.328125 -81.5 C 65.035156 -79.457031 68.847656 -76.613281 71.765625 -72.96875 C 74.679688 -69.320312 76.539062 -65.128906 77.34375 -60.390625 L 66.40625 -60.390625 C 65.382812 -65.054688 62.863281 -68.753906 58.84375 -71.484375 C 54.832031 -74.222656 49.800781 -75.59375 43.75 -75.59375 C 37.550781 -75.59375 32.351562 -74.132812 28.15625 -71.21875 C 23.96875 -68.300781 20.816406 -64.285156 18.703125 -59.171875 C 16.585938 -54.066406 15.53125 -48.269531 15.53125 -41.78125 C 15.53125 -35.289062 16.585938 -29.472656 18.703125 -24.328125 C 20.816406 -19.191406 23.96875 -15.164062 28.15625 -12.25 C 32.351562 -9.332031 37.550781 -7.875 43.75 -7.875 C 49.800781 -7.875 54.832031 -9.332031 58.84375 -12.25 C 62.863281 -15.164062 65.382812 -19.503906 66.40625 -25.265625 L 77.34375 -25.265625 C 76.03125 -17.171875 72.472656 -10.753906 66.671875 -6.015625 C 60.878906 -1.273438 53.3125 1.09375 43.96875 1.09375 Z M 43.96875 1.09375 "/></g></g><g style="fill:#1c1b22;fill-opacity:1;"><g transform="translate(212.935925, 132.658854)"><path style="paint-order: fill; fill: rgb(183, 227, 200); stroke-linecap: square; stroke-miterlimit: 12.48; stroke: rgb(90, 88, 98); stroke-opacity: 0.5;" d="M 24.9375 1.09375 C 18.882812 1.09375 14.085938 -0.4375 10.546875 -3.5 C 7.015625 -6.5625 5.25 -10.753906 5.25 -16.078125 C 5.25 -21.328125 7.21875 -25.484375 11.15625 -28.546875 C 14.363281 -31.097656 18.992188 -32.992188 25.046875 -34.234375 L 46.59375 -38.390625 C 46.59375 -43.128906 45.351562 -46.738281 42.875 -49.21875 C 40.101562 -51.988281 36.382812 -53.375 31.71875 -53.375 C 28 -53.375 24.769531 -52.390625 22.03125 -50.421875 C 19.300781 -48.453125 17.570312 -45.753906 16.84375 -42.328125 L 7.546875 -42.328125 C 8.273438 -46.554688 9.820312 -50.09375 12.1875 -52.9375 C 14.5625 -55.789062 17.460938 -57.945312 20.890625 -59.40625 C 24.316406 -60.863281 27.960938 -61.59375 31.828125 -61.59375 C 35.328125 -61.59375 38.625 -61.082031 41.71875 -60.0625 C 44.820312 -59.039062 47.429688 -57.472656 49.546875 -55.359375 C 51.660156 -53.304688 53.15625 -51.003906 54.03125 -48.453125 C 54.914062 -45.898438 55.445312 -43.472656 55.625 -41.171875 C 55.8125 -38.878906 55.90625 -37.039062 55.90625 -35.65625 L 55.90625 0 L 46.59375 0 L 46.59375 -9.515625 C 44.476562 -6.453125 42.035156 -4.082031 39.265625 -2.40625 C 37.222656 -1.164062 35.015625 -0.273438 32.640625 0.265625 C 30.273438 0.816406 27.707031 1.09375 24.9375 1.09375 Z M 26.03125 -7.109375 C 29.75 -7.109375 32.957031 -7.800781 35.65625 -9.1875 C 39.957031 -11.445312 42.875 -14.363281 44.40625 -17.9375 C 45.9375 -21.507812 46.703125 -25.8125 46.703125 -30.84375 L 27.015625 -26.90625 C 22.492188 -26.03125 19.175781 -24.609375 17.0625 -22.640625 C 15.382812 -20.960938 14.546875 -18.847656 14.546875 -16.296875 C 14.546875 -13.523438 15.582031 -11.300781 17.65625 -9.625 C 19.738281 -7.945312 22.53125 -7.109375 26.03125 -7.109375 Z M 26.03125 -7.109375 "/></g></g><g style="fill:#1c1b22;fill-opacity:1;"><g transform="translate(275.947109, 132.658854)"><path style="paint-order: fill; fill: rgb(183, 227, 200); stroke-linecap: square; stroke-miterlimit: 12.48; stroke: rgb(90, 88, 98); stroke-opacity: 0.5;" d="M 17.0625 0 L 7.765625 0 L 7.765625 -60.5 L 17.0625 -60.5 L 17.0625 -51.078125 C 20.125 -55.023438 23.054688 -57.765625 25.859375 -59.296875 C 28.671875 -60.828125 31.71875 -61.59375 35 -61.59375 C 38.863281 -61.59375 42.378906 -60.679688 45.546875 -58.859375 C 48.722656 -57.035156 50.785156 -54.222656 51.734375 -50.421875 C 54.003906 -54.804688 56.832031 -57.765625 60.21875 -59.296875 C 63.613281 -60.828125 67.171875 -61.59375 70.890625 -61.59375 C 77.742188 -61.59375 82.8125 -59.640625 86.09375 -55.734375 C 89.375 -51.828125 91.015625 -46.375 91.015625 -39.375 L 91.015625 0 L 81.71875 0 L 81.71875 -37.1875 C 81.71875 -42.4375 80.640625 -46.445312 78.484375 -49.21875 C 76.335938 -51.988281 73.332031 -53.375 69.46875 -53.375 C 67.28125 -53.375 65.382812 -53.007812 63.78125 -52.28125 C 62.175781 -51.550781 60.789062 -50.566406 59.625 -49.328125 C 57.507812 -47.066406 56.046875 -44.128906 55.234375 -40.515625 C 54.429688 -36.910156 54.03125 -32.519531 54.03125 -27.34375 L 54.03125 0 L 44.734375 0 L 44.734375 -37.1875 C 44.734375 -42.363281 43.601562 -46.351562 41.34375 -49.15625 C 39.082031 -51.96875 36.09375 -53.375 32.375 -53.375 C 30.332031 -53.375 28.488281 -52.988281 26.84375 -52.21875 C 25.207031 -51.457031 23.769531 -50.382812 22.53125 -49 C 20.707031 -46.957031 19.335938 -44.273438 18.421875 -40.953125 C 17.515625 -37.640625 17.0625 -33.101562 17.0625 -27.34375 Z M 17.0625 0 "/></g></g><g style="fill:#1c1b22;fill-opacity:1;"><g transform="translate(374.292694, 132.658854)"><path style="paint-order: fill; fill: rgb(183, 227, 200); stroke-linecap: square; stroke-miterlimit: 12.48; stroke: rgb(90, 88, 98); stroke-opacity: 0.5;" d="M 36.96875 1.09375 C 32.8125 1.09375 29.238281 0.328125 26.25 -1.203125 C 23.257812 -2.734375 20.234375 -5.46875 17.171875 -9.40625 L 17.171875 0 L 7.875 0 L 7.875 -83.46875 L 17.171875 -83.46875 L 17.171875 -51.078125 C 20.304688 -55.171875 23.382812 -57.945312 26.40625 -59.40625 C 29.4375 -60.863281 32.957031 -61.59375 36.96875 -61.59375 C 42.4375 -61.59375 47.175781 -60.257812 51.1875 -57.59375 C 55.207031 -54.925781 58.328125 -51.238281 60.546875 -46.53125 C 62.773438 -41.832031 63.890625 -36.382812 63.890625 -30.1875 C 63.890625 -24.0625 62.773438 -18.644531 60.546875 -13.9375 C 58.328125 -9.238281 55.207031 -5.554688 51.1875 -2.890625 C 47.175781 -0.234375 42.4375 1.09375 36.96875 1.09375 Z M 36.09375 -7.109375 C 39.882812 -7.109375 43.164062 -8.128906 45.9375 -10.171875 C 48.707031 -12.210938 50.84375 -14.960938 52.34375 -18.421875 C 53.84375 -21.890625 54.59375 -25.8125 54.59375 -30.1875 C 54.59375 -34.632812 53.84375 -38.585938 52.34375 -42.046875 C 50.84375 -45.515625 48.707031 -48.269531 45.9375 -50.3125 C 43.164062 -52.351562 39.882812 -53.375 36.09375 -53.375 C 32.375 -53.375 29.054688 -52.367188 26.140625 -50.359375 C 23.222656 -48.359375 20.941406 -45.625 19.296875 -42.15625 C 17.660156 -38.695312 16.84375 -34.707031 16.84375 -30.1875 C 16.84375 -25.738281 17.660156 -21.78125 19.296875 -18.3125 C 20.941406 -14.851562 23.222656 -12.117188 26.140625 -10.109375 C 29.054688 -8.109375 32.375 -7.109375 36.09375 -7.109375 Z M 36.09375 -7.109375 "/></g></g><g style="fill:#1c1b22;fill-opacity:1;"><g transform="translate(443.64875, 132.658854)"><path style="paint-order: fill; fill: rgb(183, 227, 200); stroke-linecap: square; stroke-miterlimit: 12.48; stroke: rgb(90, 88, 98); stroke-opacity: 0.5;" d="M 12.46875 -70.890625 C 10.5 -70.890625 8.820312 -71.5625 7.4375 -72.90625 C 6.050781 -74.257812 5.359375 -75.882812 5.359375 -77.78125 C 5.359375 -79.675781 6.050781 -81.28125 7.4375 -82.59375 C 8.820312 -83.90625 10.5 -84.5625 12.46875 -84.5625 C 14.4375 -84.5625 16.113281 -83.90625 17.5 -82.59375 C 18.882812 -81.28125 19.578125 -79.675781 19.578125 -77.78125 C 19.578125 -75.882812 18.882812 -74.257812 17.5 -72.90625 C 16.113281 -71.5625 14.4375 -70.890625 12.46875 -70.890625 Z M 17.0625 0 L 7.765625 0 L 7.765625 -60.5 L 17.0625 -60.5 Z M 17.0625 0 "/></g></g><g clip-rule="nonzero" clip-path="url(#448ca02baa)"><g clip-rule="nonzero" clip-path="url(#1dacc3139f)"><g clip-rule="nonzero" clip-path="url(#22c28d1122)"><path style="fill-rule: nonzero; fill-opacity: 1; paint-order: fill; fill: rgb(183, 227, 200); stroke-linecap: square; stroke-miterlimit: 12.48; stroke: rgb(90, 88, 98); stroke-opacity: 0.5;" d="M 76.117188 44.007812 C 59.839844 39.792969 42.574219 46.890625 32.179688 59.710938 C 22.421875 71.746094 18.441406 87.582031 22.265625 102.6875 C 25.953125 117.246094 36.5625 130.203125 50.152344 136.609375 C 65.363281 143.789062 85.238281 143.179688 96.953125 129.800781 C 102.214844 123.78125 105.097656 115.605469 104.046875 107.597656 C 103.503906 103.335938 102 99.445312 99.527344 95.925781 C 99.847656 93.246094 99.734375 90.582031 99.191406 87.9375 C 98.644531 85.292969 97.691406 82.800781 96.332031 80.464844 C 88.703125 67.082031 68.105469 57.363281 54.15625 66.914062 C 51.460938 68.734375 49.347656 71.078125 47.820312 73.953125 L 55.601562 78.113281 C 56.582031 76.242188 58.46875 74.574219 60.667969 73.449219 C 62.976562 72.273438 66.109375 71.878906 68.820312 72.179688 C 72.097656 72.582031 75.179688 73.582031 78.070312 75.179688 C 80.671875 76.480469 82.980469 78.183594 84.992188 80.289062 C 87.0625 82.320312 88.65625 84.675781 89.773438 87.355469 C 76.792969 80.195312 53.519531 78.109375 46.621094 94.503906 C 45.089844 98.148438 44.597656 102.296875 45.976562 106.078125 C 47.464844 110.171875 50.496094 113.328125 54.25 115.464844 C 61.300781 119.472656 70.308594 119.941406 78.082031 118.167969 C 84.746094 116.660156 90.9375 112.765625 94.976562 107.234375 L 95.066406 107.699219 C 95.550781 110.550781 95.378906 113.363281 94.550781 116.132812 C 94.234375 117.402344 93.753906 118.609375 93.113281 119.75 C 92.402344 121.167969 91.519531 122.464844 90.457031 123.640625 C 81.707031 133.644531 66.667969 134.289062 55.050781 129.046875 C 52.347656 127.820312 49.792969 126.328125 47.394531 124.578125 C 44.992188 122.828125 42.792969 120.855469 40.796875 118.65625 C 38.796875 116.453125 37.042969 114.078125 35.53125 111.519531 C 34.019531 108.960938 32.78125 106.277344 31.820312 103.464844 C 27.875 91.792969 29.671875 79.605469 36.25 69.234375 C 37.824219 66.78125 39.644531 64.53125 41.714844 62.476562 C 43.804688 60.316406 46.140625 58.457031 48.714844 56.90625 C 54.023438 53.621094 60.304688 51.605469 66.875 51.671875 C 74.175781 51.746094 81.046875 54.960938 87.488281 58.082031 C 93.828125 61.160156 100.109375 64.476562 105.246094 69.214844 C 106.050781 69.957031 106.785156 70.707031 107.5 71.492188 L 113.929688 65.3125 C 110.0625 61.113281 105.359375 57.6875 100.433594 54.792969 C 92.917969 50.375 84.589844 46.199219 76.117188 44.007812 Z M 80.464844 107.945312 C 75.234375 110.480469 68.519531 110.816406 62.777344 109.3125 C 61.496094 109.023438 60.285156 108.558594 59.136719 107.921875 C 57.902344 107.367188 56.832031 106.585938 55.921875 105.582031 C 55.191406 104.8125 54.675781 103.917969 54.378906 102.898438 C 54.082031 101.878906 54.039062 100.847656 54.246094 99.804688 C 54.503906 98.660156 54.945312 97.59375 55.566406 96.601562 C 56.191406 95.609375 56.957031 94.75 57.875 94.019531 C 59.710938 92.507812 62.734375 91.425781 65.269531 91.132812 C 71.660156 90.414062 78.660156 91.785156 84.355469 94.605469 C 86.339844 95.554688 88.15625 96.753906 89.8125 98.195312 C 89.25 99.625 88.507812 100.953125 87.585938 102.179688 C 85.679688 104.679688 83.308594 106.601562 80.464844 107.945312 Z M 80.464844 107.945312 "/></g></g></g></g></svg>